<?xml version="1.0" encoding="utf-8"?>
<!-- Generator: Adobe Illustrator 24.3.0, SVG Export Plug-In . SVG Version: 6.00 Build 0)  -->
<svg version="1.1" id="图层_1" xmlns="http://www.w3.org/2000/svg" xmlns:xlink="http://www.w3.org/1999/xlink" x="0px" y="0px"
	 viewBox="0 0 1024 1024" style="enable-background:new 0 0 1024 1024;" xml:space="preserve">
<style type="text/css">
	.st0{clip-path:url(#SVGID_2_);}
	.st1{display:none;fill:#FFFFFF;}
	.st2{clip-path:url(#SVGID_4_);}
	.st3{fill:#F2F6FE;}
	.st4{fill:#D1E6FF;}
	.st5{fill:#E2EFFF;}
	.st6{fill:#FFFFFF;}
	.st7{fill:#BCD5FB;}
	.st8{fill:#CFE2FA;}
	.st9{fill:#5095FE;}
	.st10{fill:#458CFB;}
	.st11{fill:#E9F3FF;}
	.st12{fill:#355466;}
	.st13{fill:#294457;}
	.st14{fill:#F92D2D;}
	.st15{fill:#F9DE2D;}
	.st16{fill:#18C45D;}
	.st17{fill:#C5DEFB;}
	.st18{fill:#BED7FF;}
	.st19{fill:none;stroke:#1E6CE5;}
	.st20{fill:#FBB245;}
	.st21{fill:#C62BCB;}
	.st22{display:none;fill:#272F31;}
	.st23{display:none;fill:#C77760;}
	.st24{display:none;fill:#151F5D;}
	.st25{display:none;fill:#BE6D5C;}
	.st26{display:none;fill:#192360;}
	.st27{display:none;fill:#C46956;}
	.st28{display:none;fill:#4165FF;}
	.st29{display:none;fill:#B36A59;}
	.st30{display:none;fill:#3E68F8;}
	.st31{display:none;fill:#1A2261;}
	.st32{fill:url(#路径_1167_1_);}
	.st33{fill:#B7BBC2;}
	.st34{fill:#769BE5;}
	.st35{fill:#ADBBB4;}
	.st36{fill:none;stroke:#ABABAB;stroke-width:0.6;}
	.st37{fill:#CBD7D1;}
	.st38{fill:none;stroke:#707070;stroke-width:0.6;}
</style>
<g>
	<defs>
		<rect id="SVGID_1_" width="1024" height="1024"/>
	</defs>
	<clipPath id="SVGID_2_">
		<use xlink:href="#SVGID_1_"  style="overflow:visible;"/>
	</clipPath>
	<g id="工作讲解-2" class="st0">
		<path class="st1" d="M0,0h1024v1024H0V0z"/>
		<g>
			<defs>
				<rect id="SVGID_3_" x="0" width="1024" height="1024"/>
			</defs>
			<clipPath id="SVGID_4_">
				<use xlink:href="#SVGID_3_"  style="overflow:visible;"/>
			</clipPath>
			<g id="工作讲解-3" class="st2">
				<path id="工作讲解-4" class="st1" d="M0,0h1024v1024H0V0z"/>
				<path id="路径_1166" class="st3" d="M56.3,346.7l5.3-14.6l2.9-6.5l6.4-11.4l4.6-6.7l4.9-6l5.2-5.3l5.3-4.8l5.8-4.4l6-3.8
					l6.1-3.4l6.4-3l13.2-4.6l13.8-3.2l9.4-1.3l9.4-0.9l9.6-0.3l19.1,0.4l23.4,2.4l26.1,4.1l32.1,5.9l8.7,1.2l6.4,0.4l44.6,0.5
					l39.7,0.9l74.8,2.8l57.2,3.1l30.1,2.1l61,5.1l30.6,3.1l30.1,3.5l39.4,5.4l37.7,6.3l17.9,3.5l16.9,3.6l16.9,4l15.5,4.2l14.3,4.3
					l10.8,3.7l9.8,3.7l17,7.6l8.2,4.3l7,4.4l6,4.4l5.2,4.4l3.8,4l3.2,4l2.5,4.1l1.9,4.1l6.2,20.7l2.9,8l7.8,17.9l5.1,9.9l5.3,9.5
					l8.4,13.9l33.3,51.2l6.9,11.9l4.2,8l3.4,7.9l2.9,7.6l1.7,5.9l1.3,5.8l0.8,5.8l0.3,5.8l-0.2,5.8l-0.8,5.8l-1.3,5.9l-2,6.1
					l-2.5,5.7l-3.3,6l-4.1,6.2L947,635.7l-11,14.4l-36.2,50.6l-8.2,10.8l-8.1,10L871.9,734l-6.1,5.8l-6.5,5.5l-7.1,5.3l-7.6,5.1
					l-8,4.7l-8.8,4.7l-16.7,7.9l-6.1,3.6l-5.5,4l-5.2,4.4l-9.6,9.5l-6.6,7.6l-13.2,16.1l-12,13.6l-11.3,10.5l-6.2,4.9l-7,4.8
					l-7.8,4.6l-6,3.1l-13.9,5.7l-15.8,4.9l-18.3,3.9l-20.9,2.7l-23.7,1.3h-27l-30.3-1.7l-37.9-3.9l-34.5-4.6l-30.5-5.1l-12.4-2.6
					l-23.3-5.6l-9.3-2.7l-17.4-5.9l-6.9-2.8l-9.8-4.5l-7.9-4.2l-7.3-4.4l-6-4.1l-20.6-15.3l-5.2-3.2l-6-3l-8.9-3.4l-5.5-1.5l-12-2.3
					l-7.5-1l-8.3-0.6l-8.7-0.1l-9.1,0.4l-18.4,1.9l-23.7,4.2l-56.4,12.4l-13,2.5l-16.8,2.6l-7.7,0.7l-7.6,0.3l-7-0.1l-6.4-0.7
					l-4.8-0.9l-4.3-1.3l-3.9-1.7l-3.6-2l-3.4-2.4l-2.9-2.9l-2.6-3.4l-2.3-3.9l-1.8-4.2l-1.3-4.8l-1.1-5.6l-0.5-6.5l-0.7-32l0.7-24.3
					l1.8-19l5.2-40.1l1-19.3l0.1-12.1l-0.4-7.2l-1-8l-1.7-8.7L82,596.5l-4.3-14.6l-14.8-48.3l-5-18l-5.8-24.9l-2.5-13.1l-1.9-13.2
					l-1.5-13.7l-0.9-14.1L45,426l0.1-10.7l0.6-11.1l1.1-11.3l1.5-11.1l2.1-11.4l2.6-11.7L56.3,346.7z"/>
				<path id="联合_163" class="st4" d="M234.1,161.5v-14.3h-14.3l-1.2-0.3l-1-0.6l-0.6-1l-0.3-1.2l0.3-1.2l0.6-1l1-0.6l1.2-0.3
					h14.3v-14.3l0.3-1.2l0.6-1l1-0.6l1.2-0.3l1.2,0.3l1,0.6l0.7,1l0.2,1.2V141h14.3l1.3,0.3l0.9,0.6l0.7,1l0.2,1.2l-0.2,1.2l-0.7,1
					l-0.9,0.6l-1.3,0.3h-14.3v14.3l-0.2,1.2l-0.7,1l-1,0.7l-1.2,0.2l-1.2-0.2l-1-0.7l-0.6-1L234.1,161.5z"/>
				<path id="联合_164" class="st5" d="M293.8,254.4l-2.1-0.2l-1.9-0.7l-1.8-1.1l-1.4-1.4l-1.1-1.7l-0.7-2l-0.3-2.2l0.2-2l0.7-1.9
					l1-1.7l1.4-1.5l1.8-1.2l0.1-3l0.5-2l0.7-1.9l2.2-3.2l3.1-2.5l1.9-0.9l4.1-0.9l3.9,0.4l3.7,1.6l3,2.5l2.2,3.5l3.2-0.7l3.3,0.8
					l2.5,2.2l1.3,3.2l1.6,0.1l3,1.1l1.9,1.5l1.5,1.9l1.1,3l0.1,1.7l-0.1,1.7l-1.2,3l-1.4,1.8l-1.9,1.5l-3,1.1l-1.7,0.1H293.8z"/>
				<path id="联合_165" class="st5" d="M119.8,205.9l-1.8-0.2l-1.6-0.7l-1.4-1l-1.1-1.4l-0.6-1.6l-0.3-1.8l0.3-1.9l0.6-1.6
					l1.1-1.3l1.4-1.1l1.5-0.7l1.9-0.2l0.9-2.3l1.8-1.6l2.4-0.6l2.4,0.5l1.1-2l1.5-1.5l1.8-1.2l2.1-0.8l2.1-0.3l2.3,0.2l2.1,0.7
					l1.9,1.2l1.5,1.5l1.2,1.9l0.7,2l0.2,3l2.3,1.9l1.3,2.7v3l-1.3,2.7l-2.4,1.9l-2.9,0.6H119.8z"/>
				<path id="椭圆_379" class="st6" d="M802,383.5l0.7-3.7l1.8-3.1l2.7-2.3l1.6-0.7l3.7-0.7l3.7,0.7l1.6,0.7l2.7,2.3l1.8,3.1
					l0.7,3.7l-0.7,3.7l-1.8,3.1l-2.7,2.3l-1.6,0.7l-3.7,0.7l-3.7-0.7l-1.6-0.7l-2.7-2.3l-1.8-3.1L802,383.5z"/>
				<path id="矩形_1433" class="st7" d="M865.1,202l3.5,0.7l2.9,1.7l2.2,2.6l0.8,1.5l0.6,3.5v161.5l-0.6,3.5l-1.8,3l-2.6,2.1
					l-1.5,0.8l-3.5,0.6H681l-3.5-0.6l-3-1.8l-2.2-2.6l-0.7-1.5l-0.6-3.5V212l0.6-3.5l1.7-2.9l2.6-2.2l1.6-0.7l3.5-0.7H865.1z"/>
				<path id="矩形_1487" class="st6" d="M852.8,214.5l3.5,0.7l3,1.7l2.2,2.6l0.7,1.5l0.6,3.5v137l-0.6,3.5l-0.7,1.6l-2.2,2.6
					l-3,1.7l-3.5,0.6H693.2l-3.5-0.6l-3-1.7l-2.1-2.6l-0.8-1.6l-0.6-3.5v-137l0.6-3.5l1.8-2.9l2.6-2.2l1.5-0.7l3.5-0.7H852.8z"/>
				<path id="矩形_1434" class="st8" d="M769.3,223.4l1.4,0.2l2.1,1.3l1.3,2.1l0.2,1.4l-0.2,1.3l-1.3,2.2l-2.1,1.3l-1.4,0.1h-76.4
					l-1.4-0.1l-2.1-1.3l-1.3-2.2l-0.2-1.3l0.2-1.4l1.3-2.1l2.1-1.3l1.4-0.2H769.3z"/>
				<path id="矩形_1435" class="st9" d="M854.5,223.4l1.3,0.2l2.2,1.3l1.2,2.1l0.2,1.4l-0.2,1.3l-1.2,2.2l-2.2,1.3l-1.3,0.1
					l-58.5-0.1l-1.2-0.5l-1.8-1.8l-0.6-2.5l0.2-1.4l1.2-2.1l2.2-1.3l1.3-0.2H854.5z"/>
				<path id="矩形_1436" class="st9" d="M789.6,245.1l1.1,0.2l0.9,0.6l0.5,0.9l0.3,1l-0.3,1.1l-0.5,0.8l-0.9,0.6l-1.1,0.2h-99
					l-1.1-0.2l-0.8-0.6l-0.6-0.8l-0.2-1.1l0.2-1l0.6-0.9l0.8-0.6l1.1-0.2H789.6z"/>
				<path id="矩形_1437" class="st9" d="M740.6,256l1.1,0.2l0.9,0.5l0.5,0.9l0.3,1.1l-0.3,1l-0.5,0.9l-0.9,0.6l-1.1,0.2h-50
					l-1.1-0.2l-0.8-0.6l-0.6-0.9l-0.2-1l0.2-1.1l0.6-0.9l0.8-0.5l1.1-0.2H740.6z"/>
				<path id="矩形_1438" class="st8" d="M857.6,273.1l0.9,0.3l0.7,0.6l0.3,0.9l-0.3,1l-0.7,0.6l-0.9,0.3H689.7l-0.9-0.3l-0.7-0.6
					l-0.2-1l0.2-0.9l0.7-0.6l0.9-0.3H857.6z"/>
				<path id="矩形_1439" class="st8" d="M857.6,289.4l0.9,0.2l0.7,0.7l0.3,0.9l-0.3,0.9l-0.7,0.7l-0.9,0.2H689.7l-0.9-0.2
					l-0.7-0.7l-0.2-0.9l0.2-0.9l0.7-0.7l0.9-0.2H857.6z"/>
				<path id="矩形_1440" class="st8" d="M857.6,305.7l0.9,0.2l0.7,0.7l0.3,0.9l-0.3,0.9l-0.7,0.7l-0.9,0.2H689.7l-0.9-0.2
					l-0.7-0.7l-0.2-0.9l0.2-0.9l0.7-0.7l0.9-0.2H857.6z"/>
				<path id="矩形_1441" class="st8" d="M857.2,321.1l1.1,0.2l0.9,0.9l0.3,1.1l-0.3,1.2l-0.9,0.8l-1.1,0.3h-167l-1.2-0.3l-0.8-0.8
					l-0.3-1.2l0.3-1.1l0.8-0.9l1.2-0.2H857.2z"/>
				<path id="矩形_1442" class="st8" d="M854.9,337.3l1.2,0.2l2,1.2l1.2,1.9l0.1,1.3l-0.1,1.2l-1.2,2l-2,1.1l-1.2,0.2H692.4
					l-1.2-0.2l-2-1.1l-1.1-2l-0.2-1.2l0.2-1.3l1.1-1.9l2-1.2l1.2-0.2H854.9z"/>
				<path id="矩形_1443" class="st8" d="M777.1,346.4l1.3,0.2l2.2,1.2l1.3,2.2l0.1,1.4l-0.1,1.3l-1.3,2.2l-2.2,1.2l-1.3,0.2h-84.2
					l-1.4-0.2l-2.1-1.2l-1.3-2.2l-0.2-1.3l0.2-1.4l1.3-2.2l2.1-1.2l1.4-0.2H777.1z"/>
				<path id="矩形_1444" class="st8" d="M840.7,356.3l1.2,0.2l2,1.1l1.2,2l0.1,1.2l-0.1,1.3l-1.2,1.9l-2,1.2l-1.2,0.2H692.4
					l-1.2-0.2l-2-1.2l-1.1-1.9l-0.2-1.3l0.2-1.2l1.1-2l2-1.1l1.2-0.2H840.7z"/>
				<path id="矩形_1402" class="st10" d="M747.1,273.9l2.9,0.3l2.7,0.7l2.4,1.2l2.3,1.6l1.9,1.9l1.6,2.3l1.2,2.4l0.7,2.7l0.3,2.9
					v330.3l-0.3,2.9l-0.7,2.7l-1.2,2.5l-1.6,2.2l-1.9,2l-2.3,1.5l-2.4,1.2L750,636l-2.9,0.2H247.5l-2.9-0.2l-2.7-0.8l-2.5-1.2
					l-2.2-1.5l-1.9-2l-1.6-2.2l-1.2-2.5l-0.7-2.7l-0.3-2.9V289.9l0.3-2.9l0.7-2.7l1.2-2.4l1.6-2.3l1.9-1.9l2.2-1.6l2.5-1.2l2.7-0.7
					l2.9-0.3H747.1z"/>
				<path id="矩形_1404" class="st11" d="M231.5,318.3h531.6v317.9H231.5V318.3z"/>
				<path id="矩形_1515" class="st12" d="M763.1,636.2v14.5l-0.7,3.5l-1.7,3l-2.6,2.2l-3.2,1.2l-1.8,0.1H241.5l-1.8-0.1l-3.2-1.2
					l-2.6-2.2l-1.8-3l-0.6-3.5v-14.5H763.1z"/>
				<path id="矩形_1516" class="st13" d="M395.5,660.7h203.6v24.5H395.5V660.7z"/>
				<path id="矩形_1517" class="st12" d="M275.6,685.2h443.3v24.5H275.6V685.2z"/>
				<path id="椭圆_356" class="st14" d="M250.5,297.9l0.6-3.2l0.7-1.5l1.5-1.9l1.9-1.5l1.4-0.7l3.3-0.6l3.3,0.6l1.5,0.7l1.9,1.5
					l1.5,1.9l0.7,1.5l0.6,3.2l-0.6,3.3l-0.7,1.5l-1.5,1.9l-1.9,1.5l-1.5,0.7l-3.3,0.6l-3.3-0.6l-1.4-0.7l-1.9-1.5l-1.5-1.9l-0.7-1.5
					L250.5,297.9z"/>
				<path id="椭圆_357" class="st15" d="M289.1,297.5l0.3-2.4l0.9-2.1l1.4-1.8l1.9-1.5l2.1-0.9l2.4-0.3l2.4,0.3l2.1,0.9l1.8,1.5
					l1.4,1.8l0.9,2.1l0.4,2.4l-0.4,2.4l-0.9,2.1l-1.4,1.8l-1.8,1.5l-2.1,0.9l-2.4,0.3l-2.4-0.3l-2.1-0.9l-1.9-1.5l-1.4-1.8l-0.9-2.1
					L289.1,297.5z"/>
				<path id="椭圆_358" class="st16" d="M326.8,297.9l0.6-3.2l0.7-1.5l1.5-1.9l1.9-1.5l1.4-0.7l3.3-0.6l3.3,0.6l1.5,0.7l1.9,1.5
					l1.5,1.9l1.1,3l0.2,1.7l-0.6,3.3l-0.7,1.5l-1.5,1.9l-1.9,1.5l-1.5,0.7l-3.3,0.6l-3.3-0.6l-1.4-0.7l-1.9-1.5l-1.5-1.9l-0.7-1.5
					L326.8,297.9z"/>
				<path id="矩形_1518" class="st6" d="M242.7,329.6h509.1v295.3H242.7V329.6z"/>
				<path class="st6" d="M491.2,467.6H254.9V337.5h236.3V467.6z"/>
				<path class="st17" d="M255.4,338v129.1h235.3V338H255.4 M254.4,337h237.3v131.1H254.4V337z"/>
				<path id="路径_1242" class="st18" d="M372.8,436.2l72.1-57.2l46.8,89.1H254.4l54.9-53.2L372.8,436.2z"/>
				<path id="椭圆_380" class="st18" d="M343.2,389.6l0.3-2.9l0.8-2.7l1.2-2.4l1.7-2.3l2-1.9l2.4-1.6l2.6-1.2l2.8-0.7l3.1-0.3
					l3,0.3l2.9,0.7l2.6,1.2l2.3,1.6l2,1.9l1.7,2.3l1.3,2.4l0.7,2.7l0.3,2.9l-0.3,2.9l-0.7,2.7l-1.3,2.5l-1.7,2.2l-2,2l-2.3,1.5
					l-2.6,1.2l-2.9,0.8l-3,0.2l-3.1-0.2l-2.8-0.8l-2.6-1.2l-2.4-1.5l-2-2l-1.7-2.2l-1.2-2.5l-0.8-2.7L343.2,389.6z"/>
				<path id="联合_171" class="st18" d="M514.9,467.6V454h218v13.6H514.9z M514.9,438.3v-13.7h218v13.7H514.9z M514.9,410v-13.7
					h218V410H514.9z M514.9,380.6V367h218v13.6H514.9z M514.9,351.3v-13.7h218v13.7H514.9z"/>
				<path id="矩形_1445" class="st10" d="M460.9,546.6h19.4v57.3h-19.4V546.6z"/>
				<path id="矩形_1446" class="st10" d="M511.1,560.6h19.4v43.3h-19.4V560.6z"/>
				<path id="矩形_1447" class="st10" d="M562.4,531.4h19.4v72.5h-19.4V531.4z"/>
				<path id="矩形_1448" class="st10" d="M612.6,560.6H632v43.3h-19.4V560.6z"/>
				<path id="矩形_1449" class="st10" d="M662.7,531.4h19.4v72.5h-19.4V531.4z"/>
				<path id="矩形_1450" class="st10" d="M714.1,504.3h19.3v99.6h-19.3V504.3z"/>
				<path id="路径_1200" class="st19" d="M466.5,538.3l51.1,14.3l50.2-33.9l53.7,33.9l50.3-33.9l48.5-22.6"/>
				<path id="减去_40" class="st10" d="M329.2,598.6l-4.7-0.2l-4.6-0.7l-4.5-1.1l-4.4-1.5l-4.1-1.9l-3.8-2.2l-3.6-2.5l-3.4-2.9
					l-3.1-3.2l-2.6-3.4l-2.4-3.7l-2-3.9l-1.6-4.2l-1.1-4.3l-0.7-4.4l-0.3-4.4l0.3-4.4l0.7-4.4l1.1-4.3l1.6-4.2l2-4l2.4-3.6l2.6-3.4
					l3.1-3.2l3.4-2.9l3.6-2.6l3.8-2.2l4.1-1.8l4.5-1.6l4.5-1l4.6-0.7l4.6-0.2l4.7,0.2l4.6,0.7l4.5,1l4.5,1.6l4.1,1.8l3.8,2.2
					l3.6,2.6l3.4,2.9l3,3.2l2.7,3.4l2.3,3.6l2,4l1.6,4.2l1.2,4.3l0.7,4.4l0.2,4.4l-0.2,4.4l-0.7,4.4l-1.2,4.3l-1.6,4.2l-2,3.9
					l-2.3,3.7l-2.7,3.4l-3,3.2l-3.4,2.9l-3.6,2.5l-3.8,2.2l-4.1,1.9l-4.5,1.5l-4.5,1.1l-4.6,0.7L329.2,598.6z M329.2,525.8l-4.1,0.3
					l-3.8,0.8l-3.6,1.2l-3.5,1.6l-3.1,2l-2.9,2.4l-2.5,2.8l-2.1,2.9l-1.8,3.3l-1.3,3.5l-0.7,3.6l-0.3,3.9l0.3,3.9l0.7,3.6l1.3,3.5
					l1.7,3.2l2.2,3l2.5,2.8l2.9,2.3l3.1,2.1l3.5,1.6l3.6,1.2l3.8,0.8l4.1,0.2l4.1-0.2l3.9-0.8l3.6-1.2l3.5-1.6l3.1-2.1l2.9-2.3
					l2.5-2.8l2.1-3l1.7-3.2l1.3-3.5l0.8-3.6l0.3-3.9l-0.3-3.9l-0.8-3.6l-1.3-3.5l-1.7-3.3l-2.1-2.9l-2.5-2.8l-2.9-2.4l-3.1-2
					l-3.5-1.6l-3.6-1.2l-3.9-0.8L329.2,525.8z"/>
				<path id="减去_42" class="st20" d="M329.8,598.6v-16.3l3.9-0.2l3.8-0.7l3.7-1.2l3.5-1.6l3.3-2.1l3-2.4l2.6-2.8l2.2-3l1.7-3.3
					l1.3-3.5l0.8-3.6l0.3-3.8l-0.3-3.9l-0.8-3.6l-1.3-3.5l-1.8-3.3l-2.1-2.9l-2.6-2.8l-2.8-2.4l-3.2-2l-3.5-1.6l-3.7-1.2l-3.9-0.8
					l-4.1-0.3v-16.2l4.7,0.2l4.7,0.7l4.5,1l4.5,1.6l4.1,1.8l3.9,2.2l3.7,2.6l3.4,2.9l3.1,3.2l2.7,3.4l2.3,3.6l2.1,4l1.6,4.2l1.2,4.3
					l0.7,4.4l0.2,4.4l-0.2,4.4l-0.7,4.4l-1.2,4.3l-1.6,4.2l-2.1,3.9l-2.3,3.7l-2.7,3.4l-3.1,3.2l-3.4,2.9l-3.7,2.5l-3.9,2.2
					l-4.1,1.9l-4.5,1.5l-4.5,1.1l-4.7,0.7L329.8,598.6z"/>
				<path id="减去_45" class="st21" d="M329.3,598.8v-16.3l3.9-0.2l3.8-0.7l3.7-1.2l3.5-1.6l3.2-2.1l3-2.5l2.7-2.8l2.2-3.2
					l1.7-3.5l1.3-3.6h17.5l-0.8,3.6l-2.4,6.9l-2,3.9l-2.3,3.6l-2.7,3.5l-3,3.1l-3.4,3l-3.7,2.5l-3.8,2.2l-4.1,1.9l-4.4,1.5l-4.6,1.1
					l-4.6,0.7L329.3,598.8z"/>
				<path id="路径_1164" class="st22" d="M161.2,728.7l-0.3,11.5l31.6-0.5l-0.9-1.6l-3.8-2.4l-9.5-4.2l-7.6-2.8H161.2z"/>
				<path id="路径_1163-2" class="st23" d="M232.7,732.6h-9.6v-13.8l9.3,1.8L232.7,732.6z"/>
				<path id="路径_1164-2" class="st22" d="M223.2,728.7l-0.3,11.5l31.6-0.5l-0.9-1.6l-3.8-2.4l-9.5-4.2l-7.6-2.8H223.2z"/>
				<path id="路径_1199" class="st24" d="M166.8,650.6l-2.2,19.6l-4.1,54.8l13,0.2l11.9-63.4l3.7-21.9l3-23.3l2.3-26.6l17,54.1
					l9.1,78.7h14.1l-3.6-84.2l-4.6-34.4l-8.8-60l-48,7.1l-0.9,63l-1.1,28.8L166.8,650.6z"/>
				<path id="路径_1188" class="st25" d="M199.4,448.9l-1.2,1.2l-1.6,0.8l-4.5,1l0.6,18.6h-13.4l0.9-18.6l-2-1.5l-1.6-1.9
					l-1.3-2.1l-1.3-4.1l-0.1-7.9l0.8-5.5l0.7-2.4l1.5-2.7l1.4-0.7l9.6,2l12.5,3.5l0.2,11.9l-0.3,5.2L199.4,448.9z"/>
				<path id="路径_1163" class="st23" d="M170.7,732.6h-9.6v-13.8l9.3,1.8L170.7,732.6z"/>
				<path id="路径_1189" class="st26" d="M177.5,449.4l1.6,0.7l4.4,0.3l7.9-1.3l0.9-6.1l0.6-2.4l1.3-3l1.2-0.8l3.1-0.4l1.6-0.6
					l1.3-0.8l1-1.1l0.4-1.5v-1.5l-1.5-4.3l0.2-0.5l3.2-2l0.8-0.8l0.4-1l0.2-1.4l-0.9-2l-2.7-2.4l-2.3-1.2l-4.7-1.7l-2.3-0.3
					l-5.1,0.4l-4.7-0.6h-2l-4.2,0.9l-1.9,0.8l-1.5,1.1l-1.1,1.4l-1.4,4.3l-1.5,2.5l-0.2,1l-0.5,4.6l0.4,6.3l0.6,3.3l1,3.1l1.6,2.9
					l1.3,1.6l1.6,1.4L177.5,449.4z"/>
				<path id="路径_1190" class="st1" d="M192.6,460.5h5.6l-1.7,2.3l-3.1,2.8l-2.1,1.2l-2.3,0.8l-2.7,0.2l-2.8-0.3l-5-1.9l-2.1-1.2
					l-4.3-3.1l7.5-0.1l2.9,1l4.1,0.5l3.6-0.6L192.6,460.5z"/>
				<path id="路径_1192" class="st1" d="M168.2,553l8.1,2.6l8.6,1.6l5,0.3l5.3-0.1l4.8-0.5l8.4-1.7l7.1-2.7l2.7-1.5l2.3-1.8
					l1.5-1.9l0.9-1.9l-1.2-5.1l-1.5-2.6l-52,11.3V553z"/>
				<path id="路径_1194" class="st27" d="M148.9,571.5l3.1,3.1l3.9,2.3l1.9,0.6l1.5,0.1l1.3-0.8l0.3-0.8l-0.6-3.6l-5.8-12.5
					l-2-9.5l-7.9,2v4.1l1,5.8l1.4,5L148.9,571.5z"/>
				<path id="路径_1195" class="st1" d="M143.5,560.8l3.7,0.6h2.5l2.7-0.4l2.8-1l-1.4-6.8l-10.3,2.7V560.8z"/>
				<path id="路径_1193" class="st28" d="M146.6,495.4l-4.3,10.2l-1.8,6.8l-0.4,3l0.4,13.9l1.4,26.3l5.4,1.1l2.3,0.2l4.4-0.4
					l1.7-0.9l-0.2-11.7l-1.6-26l11.4-25v-0.6l-1.8-8.2l-2.1-6.8l-1.9-5.7l-1.3-2.3l-1.4,1.9l-2.2,4.8L146.6,495.4z"/>
				<path id="路径_1197" class="st29" d="M255.8,418.9l0.6-6.8l0.4-0.6l0.6-0.1l0.6,0.4l0.6,1.1l0.7,4.8l3.5-11.9l1-1.7l0.7-0.2
					l1.9,1l-1.4,10.2l5.3,2.6l2.2,2.2l0.4,1.2l-0.7,3.7l-1.7,3.6l-1,1.4l-3.1,2.8l-4,1.1l-3.6-5l-1.7-2.9l-1.3-4.4V418.9z"/>
				<path id="路径_1198" class="st1" d="M258,427.6l7.9,0.9l2.4,1.1l0.4,0.6v0.8l-2.1,3.5l-1.5,1.4l-8.2-4l0.5-2.3L258,427.6z"/>
				<path id="路径_1196" class="st30" d="M238.8,460l5.4-8.2l13.2-22l4.6-0.2l3.7,0.4l1.6,0.5l1.2,0.7l0.1,1.7l-1.5,5.2l-5.6,13.1
					l-9.3,19l-1.5,2.1l-1.2,1.2l-1.9,1.1l-2.3,0.8l-3.1,0.6l-29.2,3.8l-12-14.6l7.7-4l21.7-0.5L238.8,460z"/>
				<path id="路径_1191" class="st31" d="M158,469.6l1.5,2.8l1.2,3.3l1.5,7.3l0.5,7v7.4l5.4,52.1l4.7,1.7l4.8,1.3l4.9,0.8l5,0.4
					l4.9-0.1l5-0.5l7.7-1.8l7.6-3.2l6.1-4.1l3.3-3.1l-2-35.4l-1.8-21.3l-1-4.9l-2.3-1.2l-1.8-1.4l-1.3-1.6l-1.4-2.7l-0.8-2.7
					l-0.4-2.8l0.1-5.6l-4.3-0.7l-4.3-0.3l-4.3,0.4l-2.1,2.1l-2.4,1.6l-2.7,1l-2.8,0.5l-2.1-0.1l-3.8-1l-3.3-2.1l-1.5-1.4l-5.4,0.4
					l-4.9,1.1l-2.4,1.1l-3.4,2.6L158,469.6z"/>
				
					<linearGradient id="路径_1167_1_" gradientUnits="userSpaceOnUse" x1="210.7895" y1="932.3528" x2="211.7895" y2="932.3138" gradientTransform="matrix(66.7 0 0 -96.3 -13271.5029 90474.9062)">
					<stop  offset="0" style="stop-color:#C3D2EF"/>
					<stop  offset="1" style="stop-color:#FFFFFF"/>
				</linearGradient>
				<path id="路径_1167" class="st32" d="M855,643.9v89.8l-1,1.3l-3.4,1.9l-7,1.8l-11.9,1.3l-8.7,0.2l-10.7-0.3l-7.5-0.7l-6.5-1.1
					l-4-1.2l-3.3-1.3l-2.7-1.9v-89.8H855z"/>
				<path id="椭圆_359" class="st33" d="M787.9,644.3l0.3-0.8l0.8-0.9l1.6-0.9l2.9-1.1l4.3-1l10.7-1.5l13.1-0.5l13.1,0.5l10.7,1.5
					l4.4,1l2.9,1.1l2.4,1.8l0.2,0.8l-0.2,0.8l-0.8,0.8l-1.6,1l-2.9,1l-4.4,1.1l-10.7,1.4l-13.1,0.5l-13.1-0.5l-10.7-1.4l-4.3-1.1
					l-2.9-1l-1.6-1l-0.8-0.8L787.9,644.3z"/>
				<path id="椭圆_360" class="st34" d="M791.5,646.9l0.3-0.5l1.1-0.7l6.9-1.6l13.3-1l8.1-0.2l8.1,0.2l13.2,1l4.3,0.8l2.7,0.8
					l1.1,0.7l0.3,0.5l-0.3,0.6l-1.1,0.6l-7,1.6l-13.2,1.1l-8.1,0.1l-8.1-0.1l-13.3-1.1l-6.9-1.6l-1.1-0.6L791.5,646.9z"/>
				<path id="路径_1168" class="st35" d="M834.5,623l-0.9-3.6l-1.5-4l-3.9-4.5l-0.9-1.7l-1.3-5.4l-0.3-6l0.9-3.8l0.7-0.9l2.4-1
					l1.6-1.2l2.7-3.5l1-2.2l0.4-3.4l-0.9-2.4l-1.4-1.4l-6.8-3.3l-2.4-2.3l-1.3-3.1l-0.4-2.9l0.8-10.8l-0.2-2l-0.5-1.1l-0.8-0.9
					l-1.2-0.7l-1.9-0.5l-2-0.1l-4.3,0.9l-3.8,2.1l-2.8,2.8l-1.7,3.2l-1.3,1.2l-5.7,3.4l-0.9,0.8l-0.3,1l0.2,1.2l0.7,1.4l3.4,5.2
					l0.5,1.6l-2.7,2.3l-2.2,2.9l-1.6,6l-0.7,1.2l-3.8,2.8l-0.7,1l-0.3,1.7v2.1l1.4,6.9l0.4,4l-0.5,2.2l-1.8,4l-1.1,8l-0.3,5.3
					l0.3,1.6l1.3,2.7l2.6,2.1l2.2,0.9l4.4,1l3.6,0.3l3.5-0.1l9.4-1.2l10.6-0.7l5.5-1.3l1.6-0.8l2.3-2.1l0.6-1.3l0.2-1.6L834.5,623z"
					/>
				<path id="路径_1169" class="st36" d="M814,557.4l-2.6,14.8l-2.1,15.2l-1.6,17.6l-0.4,9.1l0.5,14.5l1.5,10.2l1.3,4.7l1.6,3.9
					l1.8,3.3"/>
				<path id="路径_1170" class="st36" d="M818.6,566.2l-7.8,9.8l-4.1-5.5"/>
				<path id="路径_1171" class="st36" d="M823.7,582.5l-3.2,1.3l-2.8,1.8l-2.6,2.2L813,590l-4.2,5.4l-4.5-6.2l-4-4.3"/>
				<path id="路径_1172" class="st36" d="M822,603.2l-2.7,1.2l-5.2,3.9l-2.2,2.2l-4.7,5.7l-1.8-4l-3.2-5.4l-3.8-4.2l-3.6-2.2"/>
				<path id="路径_1173" class="st36" d="M816.7,621.6l-1.7,0.5l-3.1,2.4l-4,5.5l-11.7-4.4"/>
				<path id="路径_1168-2" class="st37" d="M802.5,617.7l1-4.3l1.8-4.7l0.8-1.2l3.9-4.2l0.8-1.4l0.8-2.3l1-5.4l0.3-5.7l-0.3-2.6
					l-1.1-3.1l-0.7-0.7l-2.6-1l-2-1.5l-1.7-1.9l-1.5-2.3l-1.1-2.5l-0.6-2.5v-1.7l1.2-2.8l1.6-1.6l8.1-4l2.8-2.7l1.6-3.7l0.4-3.4
					l-0.9-12.9l0.3-2.3l0.5-1.3l0.9-1.1l1.5-0.9l3.5-0.7h1.9l2.8,0.6l2.7,1l2.6,1.4l2.2,1.8l1.7,2l2.2,3.9l1.5,1.5l6.8,4l1.1,1
					l0.3,1.2l-0.2,1.4l-0.7,1.6l-4.1,6.2l-0.7,1.9l3.4,2.8l2.3,3.1l0.9,2.1l1.3,5.4l0.8,1.3l4.5,3.4l0.7,1.2l0.5,2l-0.1,2.5
					l-1.7,8.2l-0.4,4.8l0.6,2.5l1.6,3.3l0.5,1.6l1.3,9.4l0.4,6.3l-0.3,1.9l-1.6,3.3l-1.3,1.3l-1.8,1.2l-2.6,1l-6.7,1.4l-7,0.1
					l-11.1-1.5l-12.7-0.8l-3.5-0.6l-3.1-1l-1.8-0.9l-2.7-2.5l-0.7-1.5l-0.3-1.9L802.5,617.7z"/>
				<path id="路径_1169-2" class="st38" d="M826.7,539.8l2.6,13.7l3.2,23l1.7,18.5l0.5,18.8l-0.4,8.8l-1.3,11.2l-1.1,4.8l-1.4,4.7
					l-1.8,4l-2,3.4"/>
				<path id="路径_1170-2" class="st38" d="M821.3,550.2l9.3,11.7l4.9-6.5"/>
				<path id="路径_1171-2" class="st38" d="M815.3,569.6l4.9,2.2l5.3,4.1l4.7,5.2l2.7,3.9l6.6-8.8l3.6-3.8"/>
				<path id="路径_1172-2" class="st38" d="M817.3,594.3l4.2,2l5.1,4l2.7,2.6l5.6,6.8l2.1-4.8l3.8-6.4l4.5-5l4.4-2.7"/>
				<path id="路径_1173-2" class="st38" d="M823.6,616.1l2,0.6l1.9,1.2l1.8,1.6l1.6,1.8l3.2,4.8l13.8-5.2"/>
			</g>
		</g>
	</g>
</g>
</svg>
