<svg t="1739896105503" class="icon" viewBox="0 0 1024 1024" version="1.1" xmlns="http://www.w3.org/2000/svg" p-id="6103" width="1em" height="1em"><path d="M712.533333 388.266667H64c-23.466667 0-42.666667 19.2-42.666667 42.666666v405.333334c0 23.466667 19.2 42.666667 42.666667 42.666666h648.533333c23.466667 0 42.666667-19.2 42.666667-42.666666v-405.333334c0-23.466667-19.2-42.666667-42.666667-42.666666z m-42.666666 407.466666H106.666667v-320h563.2v320z" p-id="6104"></path><path d="M789.333333 245.333333H164.266667c-23.466667 0-42.666667 19.2-42.666667 42.666667s19.2 42.666667 42.666667 42.666667H789.333333v386.133333c0 23.466667 19.2 42.666667 42.666667 42.666667s42.666667-19.2 42.666667-42.666667V330.666667c0-46.933333-38.4-85.333333-85.333334-85.333334z" p-id="6105"></path><path d="M913.066667 108.8H288c-23.466667 0-42.666667 19.2-42.666667 42.666667s19.2 42.666667 42.666667 42.666666h627.2v396.8c0 23.466667 19.2 42.666667 42.666667 42.666667s42.666667-19.2 42.666666-42.666667V194.133333c-2.133333-46.933333-38.4-85.333333-87.466666-85.333333z" p-id="6106"></path></svg>